<mxfile host="app.diagrams.net" modified="2023-09-12T01:02:20.314Z" agent="Mozilla/5.0 (Windows NT 10.0; Win64; x64) AppleWebKit/537.36 (KHTML, like Gecko) Chrome/116.0.0.0 Safari/537.36" version="21.7.0" etag="IcVVbv880RKC7nXtlcFB" type="github">
  <diagram name="Halaman-1" id="qAz_rD-KkNwAD1cDf7xx">
    <mxGraphModel>
      <root>
        <mxCell id="0" />
        <mxCell id="1" parent="0" />
      </root>
    </mxGraphModel>
  </diagram>
</mxfile>
